<?xml version="1.0" encoding="utf-8"?>
<!-- Generator: Adobe Illustrator 25.0.0, SVG Export Plug-In . SVG Version: 6.00 Build 0)  -->
<svg version="1.1" id="Capa_1" xmlns="http://www.w3.org/2000/svg" xmlns:xlink="http://www.w3.org/1999/xlink" x="0px" y="0px"
	 viewBox="0 0 189 81" style="enable-background:new 0 0 189 81;" xml:space="preserve">
<style type="text/css">
	.st0{fill:#FFFFFF;}
	.st1{fill:url(#SVGID_1_);}
	.st2{clip-path:url(#SVGID_3_);}
	.st3{fill:#051D27;}
	.st4{fill:#052C3D;}
	.st5{clip-path:url(#SVGID_5_);fill:url(#SVGID_6_);}
	.st6{clip-path:url(#SVGID_8_);}
	.st7{fill:url(#SVGID_9_);}
	.st8{clip-path:url(#SVGID_11_);fill:#E74053;}
	.st9{clip-path:url(#SVGID_13_);}
	.st10{clip-path:url(#SVGID_15_);}
	.st11{fill:url(#SVGID_16_);}
	.st12{clip-path:url(#SVGID_18_);fill:url(#SVGID_19_);}
	.st13{clip-path:url(#SVGID_21_);}
	.st14{clip-path:url(#SVGID_23_);}
</style>
<g>
	<g>
		<g>
			<path class="st0" d="M75.8,24.1h2.6c0.1,1.1,0.6,1.9,2.3,1.9c1.2,0,1.9-0.6,1.9-1.6c0-0.9-0.5-1.3-2.2-1.5
				c-3-0.4-4.2-1.3-4.2-3.6c0-2,1.7-3.5,4.3-3.5c2.7,0,4.2,1.2,4.4,3.5h-2.5c-0.2-1.1-0.8-1.6-2-1.6s-1.8,0.5-1.8,1.3
				s0.4,1.2,2.2,1.5c2.8,0.4,4.3,1.1,4.3,3.6c0,2.1-1.7,3.8-4.5,3.8C77.4,27.9,75.9,26.4,75.8,24.1z"/>
			<path class="st0" d="M86.3,23.6v-0.1c0-2.7,1.9-4.5,4.4-4.5c2.2,0,4.2,1.3,4.2,4.4V24h-6.2c0.1,1.4,0.8,2.3,2.1,2.3
				c1.1,0,1.6-0.5,1.8-1.2h2.3C94.6,27,93.1,28,90.8,28C88.2,27.9,86.3,26.3,86.3,23.6z M92.6,22.5c-0.1-1.3-0.7-1.9-1.9-1.9
				c-1.1,0-1.8,0.7-2,1.9H92.6z"/>
			<path class="st0" d="M96.5,19.1h2.4v1.6c0.5-1.2,1.4-1.8,2.8-1.8v2.2c-1.8,0-2.8,0.6-2.8,2.2v4.3h-2.4V19.1z"/>
			<path class="st0" d="M102.5,19.1h2.6l2.1,6.2l2-6.2h2.3l-3.1,8.6h-2.7L102.5,19.1z"/>
			<path class="st0" d="M112.6,16.7c0-0.7,0.6-1.3,1.4-1.3s1.4,0.6,1.4,1.3S114.8,18,114,18S112.6,17.4,112.6,16.7z M112.8,19.1h2.4
				v8.6h-2.4V19.1z"/>
			<path class="st0" d="M116.9,23.6v-0.1c0-2.8,2-4.5,4.4-4.5c2,0,3.8,0.9,4.1,3.3h-2.3c-0.2-1-0.8-1.5-1.7-1.5
				c-1.2,0-2.1,0.9-2.1,2.6v0.1c0,1.7,0.8,2.6,2.1,2.6c1,0,1.7-0.6,1.8-1.7h2.2c-0.1,2-1.6,3.5-4.1,3.5S116.9,26.4,116.9,23.6z"/>
			<path class="st0" d="M126.8,16.7c0-0.7,0.6-1.3,1.4-1.3c0.8,0,1.4,0.6,1.4,1.3S129,18,128.2,18C127.4,18,126.8,17.4,126.8,16.7z
				 M127,19.1h2.4v8.6H127V19.1z"/>
			<path class="st0" d="M131,23.5v-0.1c0-2.7,2-4.5,4.5-4.5c2.6,0,4.5,1.7,4.5,4.4v0.1c0,2.7-2,4.4-4.5,4.4
				C133,27.9,131,26.2,131,23.5z M137.7,23.5v-0.1c0-1.6-0.8-2.6-2.1-2.6s-2.1,1-2.1,2.6v0.1c0,1.6,0.8,2.6,2.1,2.6
				S137.7,25.1,137.7,23.5z"/>
			<path class="st0" d="M141,25.1h2.2c0.1,0.8,0.5,1.2,1.5,1.2c0.9,0,1.4-0.3,1.4-0.9s-0.5-0.8-1.7-1c-2.3-0.3-3.2-1-3.2-2.7
				c0-1.8,1.6-2.7,3.4-2.7c1.9,0,3.3,0.7,3.6,2.7H146c-0.1-0.7-0.5-1-1.4-1c-0.8,0-1.2,0.4-1.2,0.9s0.4,0.8,1.7,0.9
				c2.2,0.3,3.3,0.9,3.3,2.7c0,1.9-1.4,2.8-3.6,2.8C142.5,27.9,141.1,26.9,141,25.1z"/>
		</g>
		<g>
			<path class="st0" d="M76.5,31.1h7.7v2.1h-5V36h4v1.9h-4v2.9h5.3v2.1h-7.9L76.5,31.1L76.5,31.1z"/>
			<path class="st0" d="M86.1,34.3h2.4v1.3c0.4-0.8,1.4-1.5,2.6-1.5c1.1,0,2,0.5,2.4,1.5c0.7-1,1.8-1.5,2.9-1.5c1.6,0,2.8,1,2.8,3.3
				v5.5h-2.4v-5.3c0-1.1-0.5-1.6-1.4-1.6s-1.7,0.6-1.7,1.8v5.1h-2.4v-5.3c0-1.1-0.5-1.6-1.4-1.6s-1.7,0.6-1.7,1.8v5.1h-2.4v-8.6
				H86.1z"/>
			<path class="st0" d="M101.3,34.3h2.4v1.4c0.5-0.8,1.5-1.5,2.7-1.5c2.1,0,3.8,1.6,3.8,4.4v0.1c0,2.8-1.6,4.4-3.8,4.4
				c-1.3,0-2.3-0.7-2.7-1.5v4.2h-2.4V34.3z M107.8,38.7L107.8,38.7c0-1.8-0.9-2.7-2.1-2.7c-1.3,0-2.1,0.9-2.1,2.6v0.1
				c0,1.7,0.8,2.6,2.1,2.6C107.1,41.2,107.8,40.4,107.8,38.7z"/>
			<path class="st0" d="M111.8,34.3h2.4V36c0.5-1.2,1.4-1.8,2.8-1.8v2.2c-1.8,0-2.8,0.6-2.8,2.2v4.3h-2.4V34.3z"/>
			<path class="st0" d="M117.8,38.7L117.8,38.7c0-2.8,1.9-4.6,4.4-4.6c2.2,0,4.2,1.3,4.2,4.4v0.7h-6.2c0.1,1.4,0.8,2.3,2.1,2.3
				c1.1,0,1.6-0.5,1.8-1.2h2.3c-0.3,1.9-1.8,2.9-4.1,2.9C119.7,43.1,117.8,41.5,117.8,38.7z M124.2,37.7c-0.1-1.3-0.7-1.9-1.9-1.9
				c-1.1,0-1.8,0.7-2,1.9H124.2z"/>
			<path class="st0" d="M127.5,40.2h2.2c0.1,0.8,0.5,1.2,1.5,1.2c0.9,0,1.4-0.3,1.4-0.9c0-0.6-0.5-0.8-1.7-1c-2.3-0.3-3.2-1-3.2-2.7
				c0-1.8,1.6-2.7,3.4-2.7c1.9,0,3.3,0.7,3.6,2.7h-2.2c-0.1-0.7-0.5-1-1.4-1c-0.8,0-1.2,0.4-1.2,0.9s0.4,0.8,1.7,0.9
				c2.2,0.3,3.3,0.9,3.3,2.7c0,1.9-1.4,2.8-3.6,2.8C128.9,43.1,127.6,42.1,127.5,40.2z"/>
			<path class="st0" d="M135.8,40.5c0-2,1.8-2.8,4.5-2.8h1v-0.3c0-1-0.3-1.6-1.4-1.6c-0.9,0-1.4,0.5-1.5,1.2h-2.3
				c0.1-2,1.8-2.9,3.9-2.9s3.6,0.9,3.6,3.2v5.6h-2.3v-1c-0.5,0.7-1.3,1.2-2.6,1.2C137.1,43.1,135.8,42.3,135.8,40.5z M141.3,39.9
				v-0.7h-0.9c-1.4,0-2.2,0.3-2.2,1.2c0,0.6,0.4,1,1.3,1C140.5,41.4,141.3,40.9,141.3,39.9z"/>
			<path class="st0" d="M145.7,34.3h2.4V36c0.5-1.2,1.4-1.8,2.8-1.8v2.2c-1.8,0-2.8,0.6-2.8,2.2v4.3h-2.4V34.3z"/>
			<path class="st0" d="M152.3,31.8c0-0.7,0.6-1.3,1.4-1.3c0.8,0,1.4,0.6,1.4,1.3c0,0.7-0.6,1.3-1.4,1.3
				C152.9,33.1,152.3,32.6,152.3,31.8z M152.5,34.3h2.4v8.6h-2.4V34.3z"/>
			<path class="st0" d="M156.5,40.5c0-2,1.8-2.8,4.5-2.8h1v-0.3c0-1-0.3-1.6-1.4-1.6c-0.9,0-1.4,0.5-1.5,1.2h-2.3
				c0.1-2,1.8-2.9,3.9-2.9c2.1,0,3.6,0.9,3.6,3.2v5.6H162v-1c-0.5,0.7-1.3,1.2-2.6,1.2C157.8,43.1,156.5,42.3,156.5,40.5z
				 M161.9,39.9v-0.7H161c-1.4,0-2.2,0.3-2.2,1.2c0,0.6,0.4,1,1.3,1C161.1,41.4,161.9,40.9,161.9,39.9z"/>
			<path class="st0" d="M166.4,30.4h2.4v12.5h-2.4V30.4z"/>
			<path class="st0" d="M170.4,38.7L170.4,38.7c0-2.8,1.9-4.6,4.4-4.6c2.2,0,4.2,1.3,4.2,4.4v0.7h-6.2c0.1,1.4,0.8,2.3,2.1,2.3
				c1.1,0,1.6-0.5,1.8-1.2h2.3c-0.3,1.9-1.8,2.9-4.1,2.9C172.3,43.1,170.4,41.5,170.4,38.7z M176.7,37.7c-0.1-1.3-0.7-1.9-1.9-1.9
				c-1.1,0-1.8,0.7-2,1.9H176.7z"/>
			<path class="st0" d="M180,40.2h2.2c0.1,0.8,0.5,1.2,1.5,1.2c0.9,0,1.4-0.3,1.4-0.9c0-0.6-0.5-0.8-1.7-1c-2.3-0.3-3.2-1-3.2-2.7
				c0-1.8,1.6-2.7,3.4-2.7c1.9,0,3.3,0.7,3.6,2.7H185c-0.1-0.7-0.5-1-1.4-1c-0.8,0-1.2,0.4-1.2,0.9s0.4,0.8,1.7,0.9
				c2.2,0.3,3.3,0.9,3.3,2.7c0,1.9-1.4,2.8-3.6,2.8C181.5,43.1,180.1,42.1,180,40.2z"/>
		</g>
		<path class="st0" d="M75.8,54.7L75.8,54.7c0-2.9,1.6-4.6,3.8-4.6c1.4,0,2.2,0.6,2.7,1.5v-5.2h2.4v12.5h-2.4v-1.4
			c-0.4,0.9-1.5,1.6-2.8,1.6C77.5,59.1,75.8,57.6,75.8,54.7z M82.4,54.6L82.4,54.6c0-1.8-0.8-2.7-2.1-2.7c-1.3,0-2.1,0.9-2.1,2.6
			v0.1c0,1.7,0.8,2.6,2,2.6C81.5,57.2,82.4,56.4,82.4,54.6z"/>
		<path class="st0" d="M86.3,54.7L86.3,54.7c0-2.8,1.9-4.6,4.4-4.6c2.2,0,4.2,1.3,4.2,4.4v0.7h-6.2c0.1,1.4,0.8,2.3,2.1,2.3
			c1.1,0,1.6-0.5,1.8-1.2h2.3c-0.3,1.9-1.8,2.9-4.1,2.9C88.2,59.1,86.3,57.4,86.3,54.7z M92.6,53.7c-0.1-1.3-0.7-1.9-1.9-1.9
			c-1.1,0-1.8,0.7-2,1.9H92.6z"/>
		<path class="st0" d="M99.6,55.2h2.6c0.1,1.1,0.6,1.9,2.3,1.9c1.2,0,1.9-0.6,1.9-1.6c0-0.9-0.5-1.3-2.2-1.5c-3-0.4-4.2-1.3-4.2-3.6
			c0-2,1.7-3.5,4.3-3.5c2.7,0,4.2,1.2,4.4,3.5h-2.5c-0.2-1.1-0.8-1.6-2-1.6s-1.8,0.5-1.8,1.3s0.4,1.2,2.2,1.5
			c2.8,0.4,4.3,1.1,4.3,3.6c0,2.1-1.7,3.8-4.5,3.8C101.2,59.1,99.8,57.6,99.6,55.2z"/>
		<path class="st0" d="M110.1,54.7L110.1,54.7c0-2.8,1.9-4.6,4.4-4.6c2.2,0,4.2,1.3,4.2,4.4v0.7h-6.2c0.1,1.4,0.8,2.3,2.1,2.3
			c1.1,0,1.6-0.5,1.8-1.2h2.3c-0.3,1.9-1.8,2.9-4.1,2.9C112,59.1,110.1,57.4,110.1,54.7z M116.4,53.7c-0.1-1.3-0.7-1.9-1.9-1.9
			c-1.1,0-1.8,0.7-2,1.9H116.4z"/>
		<path class="st0" d="M119.9,59.1h2.4c0.1,0.8,0.7,1.3,1.9,1.3c1.4,0,2.2-0.8,2.2-2.1V57c-0.5,0.8-1.5,1.6-2.8,1.6
			c-2.1,0-3.8-1.6-3.8-4.1v-0.1c0-2.5,1.6-4.2,3.8-4.2c1.4,0,2.2,0.6,2.7,1.5v-1.3h2.4v7.9c0,2.6-1.7,3.9-4.5,3.9
			C121.4,62.1,120.1,60.9,119.9,59.1z M126.4,54.4L126.4,54.4c0-1.6-0.8-2.5-2.1-2.5c-1.3,0-2.1,1-2.1,2.4v0.1c0,1.4,0.8,2.3,2,2.3
			C125.5,56.7,126.4,55.8,126.4,54.4z"/>
		<path class="st0" d="M130.7,55.8v-5.5h2.4v5.2c0,1.2,0.5,1.7,1.5,1.7s1.8-0.6,1.8-1.9v-5.1h2.4v8.6h-2.4v-1.4
			c-0.4,0.9-1.3,1.5-2.7,1.5C132,59.1,130.7,58.1,130.7,55.8z"/>
		<path class="st0" d="M140.9,50.3h2.4v1.6c0.5-1.2,1.4-1.8,2.8-1.8v2.2c-1.8,0-2.8,0.6-2.8,2.2v4.3h-2.4V50.3z"/>
		<path class="st0" d="M147.5,47.8c0-0.7,0.6-1.3,1.4-1.3c0.8,0,1.4,0.6,1.4,1.3s-0.6,1.3-1.4,1.3S147.5,48.6,147.5,47.8z
			 M147.7,50.3h2.4v8.6h-2.4V50.3z"/>
		<path class="st0" d="M151.7,54.7L151.7,54.7c0-2.9,1.6-4.6,3.8-4.6c1.4,0,2.2,0.6,2.7,1.5v-5.2h2.4v12.5h-2.4v-1.4
			c-0.4,0.9-1.5,1.6-2.8,1.6C153.4,59.1,151.7,57.6,151.7,54.7z M158.3,54.6L158.3,54.6c0-1.8-0.8-2.7-2.1-2.7s-2.1,0.9-2.1,2.6v0.1
			c0,1.7,0.8,2.6,2,2.6C157.4,57.2,158.3,56.4,158.3,54.6z"/>
		<path class="st0" d="M162.2,56.5c0-2,1.8-2.8,4.5-2.8h1v-0.3c0-1-0.3-1.6-1.4-1.6c-0.9,0-1.4,0.5-1.5,1.2h-2.3
			c0.1-2,1.8-2.9,3.9-2.9s3.6,0.9,3.6,3.2v5.6h-2.3v-1c-0.5,0.7-1.3,1.2-2.6,1.2C163.5,59.1,162.2,58.3,162.2,56.5z M167.6,55.9
			v-0.7h-0.9c-1.4,0-2.2,0.3-2.2,1.2c0,0.6,0.4,1,1.3,1C166.8,57.4,167.6,56.8,167.6,55.9z"/>
		<path class="st0" d="M171.5,54.7L171.5,54.7c0-2.9,1.6-4.6,3.8-4.6c1.4,0,2.2,0.6,2.7,1.5v-5.2h2.4v12.5H178v-1.4
			c-0.4,0.9-1.5,1.6-2.8,1.6C173.2,59.1,171.5,57.6,171.5,54.7z M178.1,54.6L178.1,54.6c0-1.8-0.8-2.7-2.1-2.7s-2.1,0.9-2.1,2.6v0.1
			c0,1.7,0.8,2.6,2,2.6C177.2,57.2,178.1,56.4,178.1,54.6z"/>
	</g>
	<g>
		
			<linearGradient id="SVGID_1_" gradientUnits="userSpaceOnUse" x1="6" y1="49.75" x2="53.5" y2="49.75" gradientTransform="matrix(1 0 0 -1 0 82)">
			<stop  offset="0.1833" style="stop-color:#005679"/>
			<stop  offset="1" style="stop-color:#051D27"/>
		</linearGradient>
		<path class="st1" d="M34.8,5.5c2,0,3.9,0.4,5.8,1.2c1.8,0.8,3.4,1.8,4.7,3.2c1.4,1.4,2.4,3,3.2,4.7c0.8,1.8,1.2,3.8,1.2,5.8v23.8
			c0,2-0.4,3.9-1.2,5.8c-0.8,1.8-1.8,3.4-3.2,4.7c-1.4,1.4-3,2.4-4.7,3.2c-1.8,0.8-3.8,1.2-5.8,1.2H24.6c-2,0-3.9-0.4-5.8-1.2
			c-1.8-0.8-3.4-1.8-4.7-3.2c-1.4-1.4-2.4-3-3.2-4.7c-0.8-1.8-1.2-3.8-1.2-5.8V20.3c0-2,0.4-3.9,1.2-5.8c0.8-1.8,1.8-3.4,3.2-4.7
			c1.4-1.4,3-2.4,4.7-3.2c1.8-0.8,3.8-1.2,5.8-1.2h10.2 M34.8,1.7H24.6C14.4,1.7,6,10.1,6,20.3v23.8c0,10.3,8.4,18.7,18.7,18.7h10.1
			c10.3,0,18.7-8.4,18.7-18.7V20.3C53.4,10.1,45.1,1.7,34.8,1.7L34.8,1.7z"/>
		<g>
			<g>
				<defs>
					<path id="SVGID_2_" d="M29.5,78.8c0.3,0,0.6-0.1,0.9-0.2C32.9,78,42,72.4,48.2,64.3c11.7-15.3,8.7-36.8,8.7-36.8
						c-1.4-0.9-6.8-3.4-13-5.5c-8.1-2.8-13.2-3.2-14.3-3.3l0,0l0,0l0,0l0,0c-1.1,0.1-6.1,0.5-14.3,3.3c-6.3,2.2-11.6,4.7-13,5.5
						c0,0-3.1,21.6,8.7,36.8c6.2,8.1,15.3,13.6,17.7,14.3C28.9,78.7,29.2,78.8,29.5,78.8"/>
				</defs>
				<clipPath id="SVGID_3_">
					<use xlink:href="#SVGID_2_"  style="overflow:visible;"/>
				</clipPath>
				<g class="st2">
					<path class="st3" d="M29.7,78.8c0.3,0,0.6-0.1,0.9-0.2C33,78,42.1,72.4,48.3,64.3C60.1,49,57,27.5,57,27.5
						c-1.4-0.9-6.8-3.4-13-5.5c-8.2-2.8-13.2-3.2-14.3-3.3"/>
					<path class="st4" d="M29.7,78.8c-0.3,0-0.6-0.1-0.9-0.2C26.3,78,17.2,72.4,11,64.3C-0.7,49,2.4,27.5,2.4,27.5
						c1.4-0.9,6.8-3.4,13-5.5c8.2-2.8,13.2-3.2,14.3-3.3"/>
				</g>
			</g>
			<g>
				<defs>
					<path id="SVGID_4_" d="M29.5,78.8c0.3,0,0.6-0.1,0.9-0.2C32.9,78,42,72.4,48.2,64.3c11.7-15.3,8.7-36.8,8.7-36.8
						c-1.4-0.9-6.8-3.4-13-5.5c-8.1-2.8-13.2-3.2-14.3-3.3l0,0l0,0l0,0l0,0c-1.1,0.1-6.1,0.5-14.3,3.3c-6.3,2.2-11.6,4.7-13,5.5
						c0,0-3.1,21.6,8.7,36.8c6.2,8.1,15.3,13.6,17.7,14.3C28.9,78.7,29.2,78.8,29.5,78.8"/>
				</defs>
				<clipPath id="SVGID_5_">
					<use xlink:href="#SVGID_4_"  style="overflow:visible;"/>
				</clipPath>
				
					<linearGradient id="SVGID_6_" gradientUnits="userSpaceOnUse" x1="44.5299" y1="60.0137" x2="35.4582" y2="16.5559" gradientTransform="matrix(1 0 0 -1 0 82)">
					<stop  offset="0.1833" style="stop-color:#005679"/>
					<stop  offset="1" style="stop-color:#051D27"/>
				</linearGradient>
				<path class="st5" d="M29.5,20c1,0.1,5.8,0.4,13.7,3.1c6,2.1,11.1,4.5,12.5,5.3c0,0,2.9,20.6-8.3,35.2
					c-5.9,7.7-14.6,13.1-17,13.7c-0.3,0.1-0.6,0.2-0.9,0.2L29.5,20z"/>
			</g>
			<g>
				<defs>
					<path id="SVGID_7_" d="M29.5,78.8c0.3,0,0.6-0.1,0.9-0.2C32.9,78,42,72.4,48.2,64.3c11.7-15.3,8.7-36.8,8.7-36.8
						c-1.4-0.9-6.8-3.4-13-5.5c-8.1-2.8-13.2-3.2-14.3-3.3l0,0l0,0l0,0l0,0c-1.1,0.1-6.1,0.5-14.3,3.3c-6.3,2.2-11.6,4.7-13,5.5
						c0,0-3.1,21.6,8.7,36.8c6.2,8.1,15.3,13.6,17.7,14.3C28.9,78.7,29.2,78.8,29.5,78.8"/>
				</defs>
				<clipPath id="SVGID_8_">
					<use xlink:href="#SVGID_7_"  style="overflow:visible;"/>
				</clipPath>
				<g class="st6">
					<path class="st0" d="M12.4,55.3c1.1,0,2-0.2,2.8-0.6c0.7-0.4,1.1-1,1.1-1.9s-0.5-1.6-1.6-2.1c-1.1-0.6-2.5-1.1-4.4-1.7
						C9.1,48.7,8,48.2,7,47.7c-1.1-0.5-2-1.1-2.8-1.9c-0.8-0.7-1.5-1.6-2-2.5c-0.5-1-0.7-2.1-0.7-3.3c0-1.4,0.3-2.6,1-3.7
						c0.6-1.1,1.5-2,2.5-2.8c1-0.7,2.2-1.3,3.5-1.7c1.3-0.4,2.7-0.6,4-0.6c4.4,0,7.9,1.6,10.7,4.9L19,40.4c-0.8-1-1.8-1.8-2.8-2.4
						c-1.1-0.6-2.2-0.9-3.5-0.9c-0.4,0-0.9,0.1-1.4,0.2c-0.5,0.1-0.9,0.3-1.3,0.5c-0.4,0.2-0.7,0.5-1,0.8s-0.4,0.7-0.4,1.2
						c0,0.8,0.5,1.4,1.5,2s2.4,1.1,4.3,1.7c1.2,0.4,2.4,0.8,3.5,1.4c1.1,0.6,2,1.2,2.9,1.9c0.8,0.7,1.5,1.6,1.9,2.5
						c0.5,0.9,0.7,2,0.7,3.2c0,1.4-0.3,2.7-1,3.8s-1.5,2-2.6,2.8c-1.1,0.7-2.2,1.3-3.6,1.7c-1.3,0.4-2.6,0.6-3.9,0.6
						c-2.2,0-4.2-0.4-6-1.2s-3.4-2.1-4.8-3.9"/>
					
						<linearGradient id="SVGID_9_" gradientUnits="userSpaceOnUse" x1="13.3065" y1="45.7465" x2="23.6415" y2="49.324" gradientTransform="matrix(1 0 0 -1 0 82)">
						<stop  offset="0" style="stop-color:#FFFFFF"/>
						<stop  offset="0.9007" style="stop-color:#1D1D1B"/>
					</linearGradient>
					<path class="st7" d="M8.5,31.8c1.3-0.4,2.7-0.6,4-0.6c4.4,0,7.9,1.6,10.7,4.9L19,40.4c-0.8-1-1.8-1.8-2.8-2.4
						c-1.1-0.6-2.2-0.9-3.5-0.9"/>
				</g>
			</g>
			<g>
				<defs>
					<path id="SVGID_10_" d="M29.5,78.8c0.3,0,0.6-0.1,0.9-0.2C32.9,78,42,72.4,48.2,64.3c11.7-15.3,8.7-36.8,8.7-36.8
						c-1.4-0.9-6.8-3.4-13-5.5c-8.1-2.8-13.2-3.2-14.3-3.3l0,0l0,0l0,0l0,0c-1.1,0.1-6.1,0.5-14.3,3.3c-6.3,2.2-11.6,4.7-13,5.5
						c0,0-3.1,21.6,8.7,36.8c6.2,8.1,15.3,13.6,17.7,14.3C28.9,78.7,29.2,78.8,29.5,78.8"/>
				</defs>
				<clipPath id="SVGID_11_">
					<use xlink:href="#SVGID_10_"  style="overflow:visible;"/>
				</clipPath>
				<path class="st8" d="M27.6,43.8"/>
			</g>
			<g>
				<defs>
					<path id="SVGID_12_" d="M29.5,78.8c0.3,0,0.6-0.1,0.9-0.2C32.9,78,42,72.4,48.2,64.3c11.7-15.3,8.7-36.8,8.7-36.8
						c-1.4-0.9-6.8-3.4-13-5.5c-8.1-2.8-13.2-3.2-14.3-3.3l0,0l0,0l0,0l0,0c-1.1,0.1-6.1,0.5-14.3,3.3c-6.3,2.2-11.6,4.7-13,5.5
						c0,0-3.1,21.6,8.7,36.8c6.2,8.1,15.3,13.6,17.7,14.3C28.9,78.7,29.2,78.8,29.5,78.8"/>
				</defs>
				<clipPath id="SVGID_13_">
					<use xlink:href="#SVGID_12_"  style="overflow:visible;"/>
				</clipPath>
				<g class="st9">
					<path class="st0" d="M57.9,52.4c0,1.4-0.3,2.6-1,3.7c-0.7,1.1-0.9,2.2-2,2.9c-1,0.7-2.7,1.6-4,2s-2.9,0.6-4.1,0.6
						c-2.2,0-4.5-0.2-6.3-1s-3.9-2.3-5.3-4.1l1.9-5.2c1.1,1,4.3,3.2,5.4,3.8c1.3,0.6,3,1,4.2,1c1.1,0,2.6-0.1,3.3-0.5
						s1.6-1.3,1.2-2.9c-0.2-0.8-1-1.5-2.1-2c-1-0.6-2.5-1.1-4.4-1.7c-1.1-0.3-2.2-0.7-3.2-1.2s-2-1.1-2.8-1.9
						c-0.8-0.7-1.5-1.6-2-2.5s-0.7-2-0.7-3.3c0-1.4,0.3-2.6,1-3.7c0.6-1.1,1.5-2,2.5-2.7s2.2-1.3,3.5-1.7c1.3-0.4,2.6-0.6,4-0.6
						c4.3,0,7.8,1.6,10.6,4.9l-4.2,4.3c-0.8-1-1.7-1.8-2.8-2.4c-1-0.6-2.2-0.9-3.4-0.9c-0.4,0-0.9,0.1-1.3,0.2
						c-0.5,0.1-0.9,0.3-1.3,0.5c-0.4,0.2-0.7,0.5-1,0.8s-0.4,0.7-0.4,1.1c0,0.8,0.5,1.4,1.5,2s2.4,1.1,4.3,1.7
						c1.2,0.4,2.3,0.8,3.4,1.4c1.1,0.6,2,1.2,2.8,1.9s1.5,1.6,1.9,2.5C57.6,50.2,57.9,51.2,57.9,52.4z"/>
				</g>
			</g>
			<g>
				<defs>
					<path id="SVGID_14_" d="M29.5,78.8c0.3,0,0.6-0.1,0.9-0.2C32.9,78,42,72.4,48.2,64.3c11.7-15.3,8.7-36.8,8.7-36.8
						c-1.4-0.9-6.8-3.4-13-5.5c-8.1-2.8-13.2-3.2-14.3-3.3l0,0l0,0l0,0l0,0c-1.1,0.1-6.1,0.5-14.3,3.3c-6.3,2.2-11.6,4.7-13,5.5
						c0,0-3.1,21.6,8.7,36.8c6.2,8.1,15.3,13.6,17.7,14.3C28.9,78.7,29.2,78.8,29.5,78.8"/>
				</defs>
				<clipPath id="SVGID_15_">
					<use xlink:href="#SVGID_14_"  style="overflow:visible;"/>
				</clipPath>
				<g class="st10">
					
						<linearGradient id="SVGID_16_" gradientUnits="userSpaceOnUse" x1="61.5593" y1="37.8938" x2="-0.2727" y2="27.7988" gradientTransform="matrix(1 0 0 -1 0 82)">
						<stop  offset="0.2211" style="stop-color:#FFFFFF"/>
						<stop  offset="0.4576" style="stop-color:#1D1D1B"/>
					</linearGradient>
					<path class="st11" d="M57.9,52.4c0,1.4-0.3,2.6-1,3.7c-0.7,1.1-0.9,2.2-2,2.9c-1,0.7-2.7,1.6-4,2s-2.9,0.6-4.1,0.6
						c-2.2,0-4.5-0.2-6.3-1s-3.9-2.3-5.3-4.1l1.9-5.2c1.1,1,4.3,3.2,5.4,3.8c1.3,0.6,3,1,4.2,1c1.1,0,2.6-0.1,3.3-0.5
						s1.6-1.3,1.2-2.9c-0.2-0.8-1-1.5-2.1-2c-1-0.6-2.5-1.1-4.4-1.7c-1.1-0.3-2.2-0.7-3.2-1.2s-2-1.1-2.8-1.9
						c-0.8-0.7-1.5-1.6-2-2.5s-0.7-2-0.7-3.3c0-1.4,0.3-2.6,1-3.7c0.6-1.1,1.5-2,2.5-2.7s2.2-1.3,3.5-1.7c1.3-0.4,2.6-0.6,4-0.6
						c4.3,0,7.8,1.6,10.6,4.9l-4.2,4.3c-0.8-1-1.7-1.8-2.8-2.4c-1-0.6-2.2-0.9-3.4-0.9c-0.4,0-0.9,0.1-1.3,0.2
						c-0.5,0.1-0.9,0.3-1.3,0.5c-0.4,0.2-0.7,0.5-1,0.8s-0.4,0.7-0.4,1.1c0,0.8,0.5,1.4,1.5,2s2.4,1.1,4.3,1.7
						c1.2,0.4,2.3,0.8,3.4,1.4c1.1,0.6,2,1.2,2.8,1.9s1.5,1.6,1.9,2.5C57.6,50.2,57.9,51.2,57.9,52.4z"/>
				</g>
			</g>
			<g>
				<defs>
					<path id="SVGID_17_" d="M29.5,78.8c0.3,0,0.6-0.1,0.9-0.2C32.9,78,42,72.4,48.2,64.3c11.7-15.3,8.7-36.8,8.7-36.8
						c-1.4-0.9-6.8-3.4-13-5.5c-8.1-2.8-13.2-3.2-14.3-3.3l0,0l0,0l0,0l0,0c-1.1,0.1-6.1,0.5-14.3,3.3c-6.3,2.2-11.6,4.7-13,5.5
						c0,0-3.1,21.6,8.7,36.8c6.2,8.1,15.3,13.6,17.7,14.3C28.9,78.7,29.2,78.8,29.5,78.8"/>
				</defs>
				<clipPath id="SVGID_18_">
					<use xlink:href="#SVGID_17_"  style="overflow:visible;"/>
				</clipPath>
				
					<linearGradient id="SVGID_19_" gradientUnits="userSpaceOnUse" x1="47.6277" y1="49.9622" x2="12.3827" y2="24.0805" gradientTransform="matrix(1 0 0 -1 0 82)">
					<stop  offset="0.4376" style="stop-color:#E73A4B"/>
					<stop  offset="0.6532" style="stop-color:#C31D31"/>
					<stop  offset="1" style="stop-color:#8B162D"/>
				</linearGradient>
				<path class="st12" d="M46.6,43.4h-3.1c-1.3-7.2-7.6-12.7-15.2-12.7c-8.5,0-15.5,6.9-15.5,15.5s6.9,15.5,15.5,15.5
					c4.9,0,9.4-2.2,12.4-6.1c1-1.3,0.8-3.3-0.6-4.3c-1.3-1-3.3-0.8-4.3,0.6c-1.8,2.4-4.5,3.7-7.5,3.7c-5.2,0-9.4-4.2-9.4-9.4
					s4.2-9.4,9.4-9.4c4.2,0,7.8,2.8,9,6.6h-8.9c-1.7,0-3,1.4-3,3c0,1.7,1.4,3,3,3h18.3c1.7,0,3-1.4,3-3
					C49.6,44.8,48.3,43.4,46.6,43.4z"/>
			</g>
			<g>
				<defs>
					<path id="SVGID_20_" d="M29.5,78.8c0.3,0,0.6-0.1,0.9-0.2C32.9,78,42,72.4,48.2,64.3c11.7-15.3,8.7-36.8,8.7-36.8
						c-1.4-0.9-6.8-3.4-13-5.5c-8.1-2.8-13.2-3.2-14.3-3.3l0,0l0,0l0,0l0,0c-1.1,0.1-6.1,0.5-14.3,3.3c-6.3,2.2-11.6,4.7-13,5.5
						c0,0-3.1,21.6,8.7,36.8c6.2,8.1,15.3,13.6,17.7,14.3C28.9,78.7,29.2,78.8,29.5,78.8"/>
				</defs>
				<clipPath id="SVGID_21_">
					<use xlink:href="#SVGID_20_"  style="overflow:visible;"/>
				</clipPath>
				<g class="st13">
					<path class="st0" d="M10.1,41.8c1,0.6,2.4,1.1,4.3,1.7c1.2,0.4,2.4,0.8,3.5,1.4c1.1,0.6,2,1.2,2.9,2c0.8,0.7,1.5,1.6,2,2.5
						s0.7,2,0.7,3.2c0,1.4-0.3,2.7-1,3.8s-1.5,2-2.6,2.8c-1.1,0.7-2.2,1.3-3.6,1.7c-1.3,0.4-2.6,0.6-3.9,0.6c-2.2,0-4.2-0.4-6-1.2
						S3,58.2,1.6,56.4l2.6-4.7c0.9,1.1,2.8,2.3,4,2.9c1.1,0.6,3,0.9,4.3,0.9c1.1,0,2.1-0.2,2.8-0.6c0.7-0.4,1.1-1,1.1-1.9
						s-0.5-1.6-1.6-2.2c-1.1-0.6-2.5-1.1-4.5-1.7"/>
				</g>
			</g>
			<g>
				<defs>
					<path id="SVGID_22_" d="M29.5,78.8c0.3,0,0.6-0.1,0.9-0.2C32.9,78,42,72.4,48.2,64.3c11.7-15.3,8.7-36.8,8.7-36.8
						c-1.4-0.9-6.8-3.4-13-5.5c-8.1-2.8-13.2-3.2-14.3-3.3l0,0l0,0l0,0l0,0c-1.1,0.1-6.1,0.5-14.3,3.3c-6.3,2.2-11.6,4.7-13,5.5
						c0,0-3.1,21.6,8.7,36.8c6.2,8.1,15.3,13.6,17.7,14.3C28.9,78.7,29.2,78.8,29.5,78.8"/>
				</defs>
				<clipPath id="SVGID_23_">
					<use xlink:href="#SVGID_22_"  style="overflow:visible;"/>
				</clipPath>
				<g class="st14">
					<path class="st0" d="M24.6,69.7c0-2.9,2.4-5.3,5.3-5.3s5.3,2.4,5.3,5.3S32.8,75,29.9,75C26.9,75,24.6,72.6,24.6,69.7z
						 M29.8,73.8c0.4,0,0.8,0,1.2,0c0.3,0,0.4-0.1,0.4-0.4s-0.1-0.6-0.1-0.9c-0.1-0.9-0.3-1.8-0.4-2.8c0-0.1,0-0.1,0.1-0.2
						s0.3-0.3,0.4-0.4c0.8-0.7,0.9-1.9,0.3-2.7c-0.8-1.1-2.3-1.3-3.3-0.4c-0.9,0.7-1.1,2-0.3,2.9c0.2,0.2,0.4,0.4,0.6,0.6
						c0.1,0.1,0.1,0.1,0.1,0.2c-0.2,0.9-0.3,1.9-0.4,2.8c0,0.3-0.1,0.5-0.1,0.8s0.1,0.4,0.4,0.4C29,73.8,29.4,73.8,29.8,73.8z"/>
					<path class="st3" d="M29.8,73.8c-0.4,0-0.8,0-1.2,0c-0.3,0-0.4-0.1-0.4-0.4s0.1-0.5,0.1-0.8c0.1-0.9,0.3-1.9,0.4-2.8
						c0-0.1,0-0.1-0.1-0.2c-0.2-0.2-0.4-0.4-0.6-0.6c-0.7-0.9-0.6-2.2,0.3-2.9c1-0.8,2.5-0.6,3.3,0.4c0.6,0.8,0.5,2-0.3,2.7
						c-0.1,0.1-0.3,0.3-0.4,0.4c-0.1,0-0.1,0.1-0.1,0.2c0.1,0.9,0.3,1.8,0.4,2.8c0,0.3,0.1,0.6,0.1,0.9s-0.1,0.4-0.4,0.4
						C30.6,73.8,30.2,73.8,29.8,73.8z"/>
				</g>
			</g>
		</g>
	</g>
</g>
</svg>
